<?xml version="1.0" standalone="no"?>
<!DOCTYPE svg PUBLIC "-//W3C//DTD SVG 20010904//EN"
 "http://www.w3.org/TR/2001/REC-SVG-20010904/DTD/svg10.dtd">
<svg version="1.0" xmlns="http://www.w3.org/2000/svg"
 width="2042.000000pt" height="480.000000pt" viewBox="0 0 2042.000000 480.000000"
 preserveAspectRatio="xMidYMid meet">
<metadata>
Created by potrace 1.12, written by Peter Selinger 2001-2015
</metadata>
<g transform="translate(0.000000,480.000000) scale(0.100000,-0.100000)"
fill="#000000" stroke="none">
<path d="M8995 4590 c-38 -4 -167 -11 -287 -15 l-216 -7 -6 -122 c-3 -66 -12
-416 -21 -776 -9 -360 -21 -752 -28 -870 -21 -405 -11 -1649 15 -1675 8 -8
304 -9 378 -1 65 6 89 4 175 -18 130 -34 127 -34 119 14 -5 30 -2 45 9 58 13
14 16 65 20 337 2 219 8 332 16 359 l13 38 100 -188 c99 -187 220 -406 295
-536 l39 -68 285 -7 c353 -10 505 -10 514 -1 4 3 -5 26 -19 51 -14 24 -26 50
-26 58 0 8 -18 33 -41 54 -24 24 -78 107 -133 205 -51 91 -147 262 -214 380
-66 118 -174 309 -240 425 l-120 209 20 40 c36 71 188 290 237 341 61 64 95
115 172 255 34 63 97 160 139 216 68 89 95 138 115 210 5 19 0 22 -42 27 -27
4 -184 7 -351 8 l-303 1 -51 -68 c-134 -179 -392 -494 -398 -487 -13 14 -30
408 -41 894 -9 435 -6 540 16 614 6 19 -10 31 -65 50 -3 1 -36 -1 -75 -5z m19
-132 c3 -51 15 -446 27 -878 12 -432 23 -787 25 -789 8 -9 55 11 85 36 35 29
128 167 248 368 40 66 79 123 88 126 9 3 46 55 83 115 l67 109 189 7 c175 7
408 2 427 -9 4 -3 -18 -32 -50 -67 -71 -75 -175 -227 -278 -406 -44 -76 -121
-188 -176 -257 -148 -183 -219 -305 -219 -374 l0 -21 18 21 c17 21 20 16 225
-316 115 -186 261 -428 325 -538 63 -110 142 -245 174 -300 32 -55 58 -103 58
-107 0 -4 -26 -5 -57 -2 -32 3 -143 -1 -248 -10 -193 -17 -247 -15 -300 11
-43 22 -61 46 -111 152 -132 278 -380 723 -467 841 l-41 54 -13 -49 c-35 -140
-58 -390 -69 -752 l-7 -243 -177 0 c-98 0 -197 3 -222 6 l-45 6 -6 307 c-3
168 -13 387 -22 486 -23 257 -31 1136 -15 1535 7 168 14 462 16 655 1 212 6
351 12 353 18 6 238 19 344 21 l106 1 6 -92z"/>
<path d="M11130 4528 c-122 -11 -207 -31 -269 -63 -42 -21 -60 -41 -115 -123
-79 -119 -141 -248 -197 -413 l-43 -124 3 -205 c2 -185 -8 -596 -25 -994 -4
-107 -3 -147 5 -142 8 5 11 -25 11 -102 0 -131 16 -430 31 -562 23 -219 95
-420 194 -542 100 -124 284 -208 456 -208 37 0 51 5 63 21 l14 21 92 -21 c126
-29 362 -30 472 -2 161 41 327 142 474 286 186 184 263 354 264 585 0 168 -22
494 -34 508 -9 9 -86 13 -319 15 l-306 2 -6 -40 c-2 -22 -9 -101 -15 -175 -12
-152 -27 -221 -63 -283 -52 -87 -129 -133 -240 -144 -211 -19 -332 152 -368
518 -14 143 -7 639 15 1021 13 236 13 238 42 280 36 52 120 106 193 125 111
30 238 -4 287 -76 48 -70 84 -243 84 -404 0 -123 8 -157 39 -169 41 -16 537
-27 629 -14 l52 8 0 61 c0 34 9 145 20 247 19 183 19 186 -1 262 -46 181 -118
336 -233 502 -69 98 -110 134 -221 196 -33 18 -83 49 -112 67 -80 53 -189 71
-488 83 -137 5 -259 9 -270 8 -11 0 -63 -5 -115 -10z m539 -118 c102 -21 222
-59 321 -103 45 -21 77 -49 182 -163 157 -172 199 -232 254 -360 56 -129 68
-224 52 -433 -8 -112 -14 -149 -26 -158 -12 -10 -83 -13 -278 -13 l-262 0 -7
63 c-42 402 -66 491 -154 570 -94 85 -168 98 -339 57 l-103 -25 -36 -54 c-78
-117 -114 -240 -132 -456 -17 -192 -14 -898 4 -1073 20 -185 35 -245 93 -357
85 -164 164 -215 333 -215 89 0 91 1 117 31 15 17 59 58 97 91 97 83 135 133
135 175 0 18 11 85 25 149 14 64 25 128 25 143 l0 28 128 9 c218 15 254 13
295 -19 54 -41 62 -77 61 -277 -1 -152 -4 -184 -23 -245 -13 -38 -24 -86 -25
-105 -4 -77 -97 -219 -204 -312 -58 -50 -206 -131 -307 -166 -183 -65 -426
-69 -654 -11 -42 10 -127 44 -189 75 -95 47 -128 70 -203 141 -103 99 -144
151 -192 248 -58 119 -68 184 -60 400 4 120 -4 633 -11 643 -13 21 -10 375 5
602 10 160 16 207 28 216 12 9 16 55 22 245 8 276 20 329 101 432 34 42 114
101 127 93 4 -3 16 3 26 14 35 39 198 101 327 124 117 22 328 20 447 -4z"/>
<path d="M146 4434 c3 -12 1 -38 -5 -59 -11 -40 2 -671 14 -684 11 -10 443
-12 488 -1 58 13 141 -5 131 -28 -3 -10 -9 -27 -12 -40 -7 -36 17 -558 30
-635 7 -42 8 -71 2 -75 -14 -10 -16 -289 -3 -343 10 -37 9 -59 -5 -120 -13
-61 -18 -174 -26 -595 -6 -285 -13 -537 -15 -559 -4 -30 -3 -35 4 -20 5 11 10
47 10 79 1 47 4 57 13 48 14 -14 17 -166 4 -231 l-8 -44 361 6 c232 4 369 11
382 18 20 10 21 15 12 182 -8 179 -10 531 -4 987 2 202 0 276 -10 310 -11 36
-13 141 -11 505 1 253 5 476 8 496 l5 37 67 6 c37 3 167 7 290 7 203 1 222 3
222 19 0 9 8 25 19 34 17 15 19 41 24 304 4 158 9 301 13 318 10 54 -31 61
-366 69 -157 3 -321 10 -365 15 -44 6 -84 9 -90 9 -107 -6 -1029 -7 -1094 -1
-89 8 -90 8 -85 -14z m1752 -78 c9 4 47 10 84 12 104 6 103 11 94 -316 -4
-147 -10 -270 -14 -273 -12 -12 -439 -31 -521 -24 l-79 7 -26 -51 -26 -52 10
-317 c5 -174 13 -660 16 -1078 6 -596 4 -795 -6 -914 -10 -117 -17 -153 -28
-158 -40 -15 -527 39 -548 61 -9 9 -9 211 1 863 7 492 9 987 5 1175 -4 178 -4
347 -1 376 6 42 4 54 -8 60 -9 4 -137 8 -286 9 -238 1 -332 8 -351 27 -3 2 -9
87 -15 188 -5 101 -13 211 -17 244 -4 33 -6 83 -4 111 3 49 4 50 35 51 82 0
223 9 232 15 6 3 64 1 130 -4 160 -13 185 -13 590 -4 205 4 389 4 445 -1 64
-7 97 -6 102 1 4 6 12 5 22 -3 10 -9 20 -9 33 -2 11 5 25 6 32 2 17 -11 47 -3
63 17 11 13 13 13 16 -7 3 -17 8 -21 20 -15z"/>
<path d="M6905 3559 c-27 -5 -99 -34 -160 -64 -60 -29 -142 -61 -181 -70 -81
-18 -108 -40 -149 -122 -34 -69 -59 -171 -81 -329 -25 -182 -26 -778 -1 -1004
42 -376 95 -522 243 -667 95 -94 197 -158 320 -202 l82 -30 375 -6 c307 -5
387 -3 445 9 195 41 280 149 336 427 34 168 46 274 46 399 -1 174 -22 220
-101 220 -28 0 -41 -5 -49 -20 -6 -11 -14 -19 -18 -18 -4 1 -32 -2 -62 -6 -30
-3 -102 -3 -160 2 -128 10 -158 3 -204 -48 -29 -32 -36 -48 -36 -81 0 -118
-157 -173 -336 -118 -90 28 -136 52 -185 96 -78 70 -80 81 -82 371 l-2 257 27
57 c33 70 96 141 152 168 53 25 127 26 181 1 57 -26 126 -107 166 -195 l34
-76 59 0 c32 0 131 -7 220 -16 127 -13 179 -14 244 -5 96 12 127 25 156 64 28
38 27 153 -2 252 -57 193 -134 423 -157 470 -38 79 -95 137 -167 173 -103 50
-168 63 -363 72 -99 5 -214 16 -255 25 -91 20 -267 28 -335 14z m708 -69 c109
-16 148 -43 290 -199 86 -95 131 -167 173 -281 24 -67 28 -92 32 -236 l4 -161
-85 -6 c-47 -3 -141 -3 -209 0 -99 5 -135 3 -182 -11 -32 -10 -59 -16 -61 -14
-1 2 -29 59 -62 128 -103 215 -144 254 -254 247 -154 -10 -265 -116 -334 -317
-45 -132 -51 -236 -27 -490 24 -270 38 -318 116 -395 54 -54 103 -75 173 -75
117 0 367 103 439 182 29 32 43 57 48 87 l7 44 72 -8 c40 -4 133 -11 207 -14
158 -7 146 7 135 -158 -7 -99 -8 -103 -28 -98 -22 6 -22 4 -22 -122 0 -117 -2
-133 -26 -184 -83 -176 -270 -254 -671 -279 -263 -17 -413 5 -562 83 -211 109
-343 327 -403 662 -20 116 -30 707 -14 881 12 132 56 326 97 428 31 77 99 158
173 205 57 37 208 73 371 90 58 6 119 13 135 15 70 8 406 5 468 -4z"/>
<path d="M2976 3551 c-3 -5 -45 -12 -93 -16 -49 -3 -149 -13 -223 -21 -74 -8
-171 -14 -215 -13 l-80 2 -9 -37 c-6 -26 -16 -40 -33 -47 l-24 -9 6 -113 c4
-69 -1 -294 -15 -592 -24 -519 -23 -732 5 -1275 8 -157 15 -301 15 -321 0 -58
24 -63 258 -56 168 6 476 37 489 51 2 2 -5 118 -17 257 -29 348 -40 682 -29
844 15 214 55 339 135 425 67 71 108 84 247 77 62 -3 137 -13 167 -22 113 -33
190 -67 210 -92 13 -16 30 -26 52 -26 29 -2 33 1 40 33 4 19 12 199 18 400 13
513 14 490 -8 490 -10 0 -23 5 -29 11 -7 7 -48 0 -139 -25 -143 -40 -566 -141
-630 -152 -49 -7 -49 -7 -59 101 -11 125 -21 156 -39 126z m-71 -178 c11 -81
27 -122 63 -163 28 -33 37 -38 48 -29 8 7 13 21 12 33 -4 28 38 41 186 55 98
10 138 19 225 52 152 59 241 87 298 95 l50 6 6 -47 c10 -67 7 -244 -6 -490
-11 -198 -13 -210 -31 -207 -10 2 -83 30 -160 62 -78 33 -173 67 -211 76 -220
51 -357 -57 -417 -329 -17 -77 -21 -140 -25 -382 -6 -318 6 -562 38 -779 11
-76 21 -143 22 -149 3 -16 -282 -66 -414 -74 -119 -6 -169 -1 -169 18 0 6 4 8
9 5 4 -3 15 13 24 35 14 35 14 45 3 68 -9 17 -15 89 -20 211 -3 102 -17 390
-30 641 -18 342 -21 469 -13 505 5 27 11 184 11 349 1 192 6 325 14 370 7 38
14 70 15 71 2 2 403 40 443 43 18 1 23 -6 29 -46z"/>
<path d="M18230 3525 c-8 -9 -6 -34 5 -86 35 -172 36 -246 24 -1625 -12 -1353
-9 -1527 21 -1636 l11 -38 137 0 c137 -1 376 -14 442 -25 30 -4 38 -1 57 23
21 27 22 43 32 373 13 403 21 553 31 569 5 8 17 7 45 -4 119 -50 318 -73 491
-57 294 27 471 117 561 286 56 107 170 497 208 710 47 269 17 645 -64 790 -15
27 -40 82 -54 120 -24 63 -40 83 -164 211 -170 174 -263 235 -428 279 -179 48
-475 32 -599 -32 -36 -18 -46 -7 -46 53 0 98 -49 109 -386 92 -163 -8 -243 -8
-272 -1 -32 8 -44 8 -52 -2z m580 -134 l95 -6 2 -79 c2 -114 23 -125 67 -37
14 26 31 52 38 59 37 30 333 61 420 43 119 -25 258 -109 386 -235 138 -134
200 -241 266 -458 55 -181 66 -266 73 -533 4 -197 2 -257 -11 -334 -35 -198
-91 -325 -223 -500 -120 -159 -138 -178 -193 -206 -122 -62 -347 -60 -579 5
-124 35 -161 61 -161 115 l0 34 -41 -14 c-23 -8 -44 -13 -48 -11 -3 2 -5 -59
-3 -137 4 -129 -14 -866 -20 -872 -2 -2 -96 -11 -210 -20 -165 -15 -218 -16
-264 -7 -31 7 -63 17 -70 23 -10 8 -12 118 -8 557 3 301 2 673 -3 827 -12 432
41 1745 73 1797 6 9 169 5 414 -11z"/>
<path d="M19168 2941 c-116 -38 -212 -121 -269 -233 -27 -54 -28 -59 -17 -119
8 -47 8 -138 -1 -349 -14 -338 -7 -400 52 -513 35 -67 66 -93 122 -102 22 -3
66 -16 98 -27 99 -36 201 -9 311 82 153 127 231 292 256 543 25 258 -44 501
-182 639 -89 89 -242 121 -370 79z m81 -91 c28 0 111 -68 212 -176 142 -150
176 -237 166 -423 -6 -119 -30 -201 -93 -323 -46 -89 -148 -194 -219 -227 -63
-29 -158 -46 -208 -37 -45 8 -101 55 -128 107 -28 56 -41 245 -37 564 4 316 1
308 111 416 70 69 141 113 165 104 8 -3 21 -5 31 -5z"/>
<path d="M5306 3485 c-3 -11 -6 -44 -6 -72 0 -29 -2 -53 -4 -53 -3 0 -24 13
-48 29 -60 40 -159 68 -288 82 -84 9 -119 9 -149 1 -21 -7 -48 -12 -60 -12
-82 0 -312 -153 -517 -343 -68 -64 -72 -70 -107 -169 -72 -206 -92 -357 -91
-673 1 -197 5 -260 22 -355 99 -543 331 -799 725 -800 109 0 205 29 322 100
44 26 99 57 123 69 48 24 48 24 32 -59 -8 -43 -7 -57 7 -81 16 -26 20 -28 62
-21 60 9 412 9 518 0 72 -6 85 -5 105 12 22 18 23 23 20 138 -1 65 -7 154 -13
198 -6 43 -13 291 -16 549 -4 377 -2 528 12 755 22 375 25 671 6 694 -11 13
-17 14 -28 5 -18 -15 -422 -5 -540 14 -79 12 -82 12 -87 -8z m-236 -66 c24 -5
53 -19 63 -30 10 -10 22 -19 28 -19 6 0 45 -27 87 -60 88 -69 93 -68 121 24
12 37 24 60 33 59 7 -1 51 -11 97 -23 101 -27 198 -24 258 7 33 17 42 18 68 7
45 -20 71 -17 82 8 l10 23 13 -24 c10 -19 10 -77 1 -290 -6 -152 -10 -615 -8
-1081 l2 -815 -135 0 c-74 0 -208 -4 -296 -9 l-162 -9 -15 24 c-13 20 -14 39
-7 104 13 117 12 128 -5 121 -8 -3 -56 -36 -107 -73 -50 -37 -93 -62 -95 -56
-3 8 -18 5 -47 -8 -71 -31 -216 -62 -296 -62 -94 -1 -251 46 -325 97 -109 74
-187 183 -230 319 -66 209 -105 605 -90 923 12 281 58 407 194 536 79 76 316
262 362 285 55 28 314 42 399 22z"/>
<path d="M5135 2913 c-116 -4 -267 -22 -328 -40 -105 -29 -174 -127 -231 -326
-54 -186 -54 -363 -2 -481 52 -116 175 -243 285 -294 51 -24 59 -24 125 -14
76 12 230 81 245 111 12 23 58 220 81 348 40 221 43 479 5 569 -41 99 -85 130
-180 127z m-4 -121 c92 -45 139 -152 139 -318 0 -229 -76 -467 -196 -617 l-47
-59 -46 7 c-134 18 -239 97 -281 210 -68 186 -79 487 -22 614 39 85 108 149
195 177 64 21 201 13 258 -14z"/>
<path d="M14035 3501 c-3 -2 -5 -35 -5 -73 0 -37 -2 -68 -5 -68 -2 0 -26 14
-52 30 -66 42 -154 67 -281 81 -189 19 -314 -21 -507 -165 -53 -41 -141 -114
-195 -162 l-98 -89 -36 -101 c-68 -186 -96 -382 -96 -668 0 -330 49 -575 160
-796 124 -247 319 -369 589 -370 113 0 190 24 331 106 63 36 126 70 139 75 21
9 23 7 17 -13 -17 -64 -17 -123 1 -145 17 -20 22 -20 83 -11 63 9 482 3 545
-8 22 -4 36 0 53 16 19 18 22 31 22 103 0 46 -7 161 -16 257 -23 245 -22 984
1 1360 19 312 18 602 -3 622 -10 10 -14 10 -21 -1 -8 -12 -48 -13 -232 -8
-123 4 -261 13 -307 20 -45 7 -85 11 -87 8z m-235 -82 c24 -5 53 -19 63 -30
10 -10 22 -19 26 -19 5 0 44 -27 87 -61 90 -69 92 -69 122 34 13 43 21 56 32
51 8 -3 53 -15 100 -26 99 -23 194 -21 253 8 32 15 42 16 70 6 50 -18 74 -15
81 10 10 42 30 3 29 -59 0 -32 -5 -373 -10 -758 -6 -385 -8 -851 -5 -1035 l5
-335 -134 0 c-74 0 -205 -4 -292 -9 -205 -12 -200 -16 -191 136 4 59 4 108 0
108 -4 0 -50 -32 -102 -71 -74 -54 -99 -68 -109 -59 -9 7 -15 8 -20 1 -8 -14
-120 -46 -229 -66 -98 -18 -141 -15 -251 17 -245 73 -371 231 -434 548 -39
200 -45 278 -46 595 0 352 9 426 70 551 44 90 138 184 333 333 148 113 166
122 282 134 76 8 227 6 270 -4z"/>
<path d="M13795 2909 c-230 -14 -321 -40 -380 -111 -77 -91 -141 -297 -152
-484 -10 -181 32 -290 167 -424 87 -87 153 -128 219 -137 53 -7 153 21 237 67
l72 40 31 133 c58 247 81 410 81 572 0 127 -17 209 -58 273 -45 73 -66 79
-217 71z m65 -119 c137 -76 173 -276 105 -575 -31 -137 -104 -290 -172 -365
l-48 -52 -60 11 c-143 26 -225 100 -269 240 -35 110 -49 232 -44 385 3 115 7
138 30 187 65 141 167 201 328 196 68 -2 94 -8 130 -27z"/>
<path d="M15045 3492 c-33 -77 -31 -1353 3 -2207 1 -11 5 -42 11 -70 5 -27 10
-68 11 -90 1 -70 4 -71 127 -40 92 24 135 29 293 34 102 3 190 9 195 13 7 4 9
158 6 465 -5 571 -3 679 10 771 14 94 42 176 75 220 62 80 223 111 321 61 47
-25 47 -25 70 -114 74 -291 97 -489 96 -820 0 -253 -7 -347 -39 -525 l-6 -35
61 -24 c60 -24 62 -24 318 -16 142 4 260 9 263 12 6 6 6 184 0 758 -5 464 0
541 46 706 15 55 18 57 60 69 25 7 68 10 98 7 103 -10 173 -66 226 -178 60
-130 62 -151 58 -818 l-3 -603 55 6 c30 3 136 11 235 17 190 11 313 24 322 33
3 3 -4 13 -15 23 -20 17 -21 23 -12 83 5 36 10 178 10 315 0 182 7 336 26 560
38 460 28 746 -41 1100 -24 119 -29 129 -93 163 -68 35 -223 87 -306 101 -77
14 -266 14 -340 0 -85 -15 -228 -72 -338 -135 l-98 -55 -64 45 c-102 73 -180
100 -336 116 -149 14 -329 -17 -515 -89 l-75 -29 0 47 c0 25 -4 51 -8 58 -5 8
-104 15 -322 22 -281 10 -316 13 -335 30 -33 29 -42 32 -50 13z m393 -89 l234
-6 10 -26 c12 -33 12 -143 0 -198 -6 -24 -8 -43 -5 -43 10 0 50 24 73 45 39
34 127 79 215 110 65 23 103 29 197 33 156 6 229 -11 399 -93 76 -37 146 -65
164 -65 36 0 61 16 136 86 30 28 77 63 105 76 107 54 366 102 517 96 107 -4
162 -26 276 -111 l69 -51 6 -60 c13 -129 46 -569 56 -745 21 -374 7 -1267 -21
-1295 -17 -18 -239 -19 -350 -2 -57 9 -107 20 -111 24 -5 5 -1 118 8 253 9
134 17 368 18 519 1 255 -1 282 -22 363 -56 221 -154 388 -253 433 -35 15 -48
16 -100 6 -87 -16 -189 -70 -214 -113 -19 -33 -20 -54 -23 -534 -2 -275 -5
-547 -5 -605 -1 -58 2 -160 7 -226 l9 -121 -114 23 c-63 14 -171 27 -242 31
l-127 6 7 126 c5 69 8 286 7 481 0 284 -4 378 -18 470 -29 191 -69 300 -123
335 -15 10 -58 47 -95 82 -76 71 -118 93 -178 93 -117 0 -202 -58 -256 -175
-65 -141 -66 -150 -74 -610 -4 -231 -10 -427 -14 -436 -4 -8 0 -84 9 -169 8
-84 15 -172 15 -195 l0 -43 -117 -6 c-124 -6 -310 -23 -354 -32 -26 -6 -27 -4
-39 68 -10 55 -11 136 -4 323 4 138 9 594 10 1015 2 634 4 807 14 879 0 2 15
1 33 -3 17 -4 137 -9 265 -13z"/>
</g>
</svg>
