<?xml version="1.0" standalone="no"?>
<!DOCTYPE svg PUBLIC "-//W3C//DTD SVG 20010904//EN"
 "http://www.w3.org/TR/2001/REC-SVG-20010904/DTD/svg10.dtd">
<svg version="1.0" xmlns="http://www.w3.org/2000/svg"
 width="2590.000000pt" height="571.000000pt" viewBox="0 0 2590.000000 571.000000"
 preserveAspectRatio="xMidYMid meet">
<metadata>
Created by potrace 1.12, written by Peter Selinger 2001-2015
</metadata>
<g transform="translate(0.000000,571.000000) scale(0.100000,-0.100000)"
fill="#000000" stroke="none">
<path d="M11075 5672 c-165 -8 -304 -18 -309 -22 -5 -5 -12 -183 -17 -397 -12
-572 -28 -1194 -39 -1478 -5 -137 -14 -390 -21 -561 -7 -202 -9 -552 -5 -1000
6 -671 13 -884 30 -901 4 -4 148 -8 319 -8 309 0 313 0 410 -28 55 -15 103
-27 109 -27 5 0 7 18 2 45 -5 35 -2 51 12 73 17 25 19 61 25 427 6 373 14 474
38 497 4 5 83 -133 176 -305 202 -373 361 -657 378 -674 17 -17 1007 -32 1007
-15 0 6 -9 26 -20 44 -11 18 -25 49 -30 68 -5 19 -34 62 -63 95 -60 67 -119
165 -362 600 -93 165 -249 441 -347 613 -98 171 -178 317 -178 322 0 38 242
402 323 487 69 73 110 133 207 303 45 80 121 198 168 264 95 132 165 258 160
290 -4 30 -34 33 -478 40 l-395 6 -53 -73 c-77 -106 -506 -646 -513 -647 -18
-1 -34 233 -49 730 -12 375 -9 1155 4 1200 7 23 3 26 -33 38 -47 14 -56 14
-456 -6z"/>
<path d="M14040 5599 c-94 -12 -220 -54 -268 -89 -115 -83 -261 -351 -369
-680 l-55 -165 7 -170 c4 -100 0 -404 -10 -740 -10 -313 -14 -631 -11 -705 4
-74 11 -234 16 -355 26 -577 58 -787 153 -1002 83 -189 198 -318 349 -392 106
-52 178 -70 304 -78 96 -6 103 -5 120 16 23 26 41 26 148 1 120 -28 218 -33
401 -21 194 12 248 26 390 96 278 139 515 364 630 600 62 126 84 202 94 330
11 132 -16 716 -34 734 -9 8 -308 19 -572 20 l-212 1 -6 -42 c-3 -24 -12 -119
-21 -213 -18 -200 -33 -274 -73 -353 -58 -115 -158 -185 -286 -199 -186 -22
-302 39 -387 204 -72 137 -105 297 -117 563 -9 204 4 829 24 1201 l15 280 41
54 c23 30 68 73 100 94 88 59 147 76 259 76 83 -1 102 -4 153 -29 133 -64 183
-205 207 -591 13 -203 16 -210 97 -221 68 -9 778 -12 787 -3 13 13 49 420 50
564 1 145 0 153 -33 250 -92 276 -252 551 -391 677 -32 29 -107 82 -166 118
-225 134 -282 152 -524 169 -169 13 -715 12 -810 0z"/>
<path d="M36 5446 c-14 -138 1 -866 18 -884 4 -4 178 -7 386 -7 259 0 382 -3
390 -11 8 -8 8 -19 0 -38 -5 -15 -10 -82 -10 -149 0 -167 27 -621 41 -702 9
-51 8 -72 -1 -95 -9 -22 -12 -103 -10 -298 2 -149 -2 -320 -8 -387 -16 -161
-34 -1198 -21 -1206 30 -18 39 -191 15 -294 -8 -33 -13 -61 -11 -63 1 -2 201
2 444 8 296 7 454 15 479 23 43 14 41 -24 22 332 -9 182 -11 411 -5 845 6 515
4 609 -9 697 -27 175 -17 1276 12 1305 9 9 100 15 350 21 317 8 339 10 368 29
17 12 36 35 43 52 8 21 13 147 15 386 2 195 7 371 11 391 7 35 6 37 -26 48
-34 10 -205 20 -754 41 -154 6 -607 11 -1006 13 l-727 2 -6 -59z"/>
<path d="M8682 4375 c-29 -8 -114 -44 -190 -79 -75 -35 -170 -72 -211 -81 -56
-14 -84 -26 -113 -53 -78 -70 -138 -245 -175 -512 -15 -105 -17 -204 -18 -625
0 -513 3 -575 45 -867 62 -424 214 -650 555 -823 170 -86 166 -86 545 -97 465
-13 695 -7 781 21 172 55 266 169 333 402 72 253 107 764 57 857 -16 30 -42
42 -95 42 -34 0 -48 -5 -59 -20 -20 -29 -138 -41 -312 -31 -77 4 -150 5 -163
3 -13 -3 -43 -23 -68 -46 -39 -36 -46 -49 -55 -101 -15 -81 -27 -104 -77 -142
-53 -40 -98 -53 -188 -53 -190 0 -404 106 -482 239 l-27 46 -7 290 c-8 323 -4
364 44 463 65 132 187 222 298 221 139 0 236 -81 334 -277 20 -40 42 -75 49
-77 32 -11 408 -37 532 -37 220 -1 298 25 326 109 17 54 5 201 -26 308 -58
202 -168 521 -201 587 -43 85 -108 152 -189 195 -132 69 -220 86 -535 103
-103 5 -214 16 -250 25 -94 24 -387 30 -458 10z"/>
<path d="M3655 4371 c-13 -12 -546 -61 -668 -61 -84 0 -98 -2 -103 -17 -15
-49 -35 -82 -52 -88 -19 -5 -20 -16 -20 -248 0 -133 -8 -406 -18 -607 -25
-496 -24 -1109 4 -1670 23 -481 16 -452 109 -465 94 -12 643 26 792 56 l54 11
-6 122 c-4 66 -13 207 -21 311 -51 653 -45 1057 20 1275 28 95 82 186 145 245
85 78 172 97 346 75 192 -24 369 -82 423 -140 30 -32 76 -47 98 -32 9 6 17 46
23 113 11 137 30 980 23 1019 -4 16 -13 30 -20 30 -8 0 -22 5 -32 11 -13 8
-48 2 -147 -26 -164 -45 -480 -122 -698 -171 -118 -26 -171 -34 -179 -26 -5 5
-16 59 -24 119 -23 180 -25 187 -49 164z"/>
<path d="M23253 4288 c2 -35 13 -110 22 -168 22 -130 24 -582 11 -2430 -6
-919 -5 -1283 3 -1390 12 -154 24 -214 44 -227 6 -4 134 -10 282 -14 149 -4
316 -12 372 -19 l103 -12 27 33 c16 18 31 39 35 48 4 9 7 91 7 182 2 293 33
954 46 967 2 3 44 -7 92 -21 142 -42 163 -46 281 -58 129 -12 407 2 519 25
222 48 388 154 481 308 64 107 195 528 264 851 33 151 33 153 33 432 -1 374
-8 416 -129 700 -26 61 -54 126 -64 145 -21 43 -315 345 -397 407 -70 53 -142
90 -243 127 -117 42 -228 57 -417 57 -190 1 -278 -13 -394 -61 -39 -16 -73
-25 -76 -21 -2 5 -9 41 -15 82 -6 40 -15 78 -21 85 -25 30 -118 37 -374 28
-318 -11 -346 -11 -429 -1 l-68 8 5 -63z m1330 -819 c23 -12 107 -86 188 -168
133 -132 150 -154 187 -231 49 -104 62 -163 62 -284 0 -243 -95 -483 -255
-643 -91 -91 -183 -138 -298 -153 -115 -14 -164 -1 -224 62 -82 85 -96 191
-97 733 l-1 380 28 59 c30 65 137 178 221 234 61 39 124 43 189 11z"/>
<path d="M6647 4259 c-4 -30 -7 -71 -7 -91 0 -21 -2 -38 -5 -38 -3 0 -28 15
-55 34 -97 67 -268 107 -455 107 -210 0 -354 -57 -578 -229 -129 -99 -304
-260 -335 -310 -59 -92 -130 -348 -151 -544 -14 -125 -14 -645 -1 -779 42
-408 210 -783 425 -946 141 -108 304 -158 505 -157 172 1 200 11 498 179 56
32 106 55 109 51 4 -4 2 -41 -4 -84 -10 -68 -10 -80 6 -107 14 -25 23 -30 52
-28 296 14 417 14 588 4 l194 -13 30 30 30 30 -12 194 c-6 106 -16 256 -22
333 -17 213 -13 1174 5 1530 21 391 22 824 2 850 -12 17 -16 17 -30 6 -14 -11
-64 -13 -269 -8 -139 4 -286 11 -327 17 -41 5 -100 12 -131 16 l-56 7 -6 -54z
m-270 -824 c110 -33 178 -116 209 -254 33 -148 6 -427 -61 -626 -46 -139 -139
-299 -211 -366 -28 -26 -32 -26 -90 -18 -269 38 -378 204 -414 634 -22 264 18
425 133 537 45 44 116 83 174 97 62 15 205 12 260 -4z"/>
<path d="M17856 4279 c-3 -17 -6 -55 -6 -84 0 -28 -3 -54 -6 -57 -3 -3 -31 10
-62 28 -65 40 -180 78 -279 95 -99 16 -276 13 -355 -5 -160 -37 -409 -204
-654 -439 l-92 -88 -46 -138 c-80 -245 -106 -442 -106 -811 0 -243 12 -399 41
-545 44 -215 148 -477 244 -610 154 -214 373 -319 660 -319 150 0 225 24 400
123 152 87 206 114 212 107 3 -3 0 -39 -6 -80 -11 -66 -10 -79 5 -111 l16 -35
67 7 c85 10 469 10 633 0 169 -10 168 -11 168 146 0 61 -8 191 -17 287 -24
252 -24 1322 1 1770 20 352 19 741 -1 761 -9 10 -16 9 -28 -1 -21 -17 -477 -7
-630 14 -152 22 -151 22 -159 -15z m-259 -850 c74 -27 150 -103 176 -174 30
-83 43 -249 28 -368 -26 -211 -68 -359 -146 -504 -45 -86 -134 -207 -158 -216
-14 -5 -45 -2 -122 15 -149 33 -242 119 -295 274 -47 134 -77 378 -67 544 13
219 114 372 281 429 86 29 224 29 303 0z"/>
<path d="M19175 4293 c-34 -83 -20 -2646 15 -2823 5 -25 12 -82 16 -127 9
-122 5 -120 159 -83 115 27 157 32 364 40 139 6 239 14 245 20 8 8 11 244 12
743 0 535 3 754 13 815 35 233 108 339 261 378 146 37 289 -4 318 -91 25 -74
91 -389 112 -534 45 -312 45 -815 0 -1121 -11 -74 -20 -142 -20 -151 0 -17 81
-52 150 -64 43 -7 635 6 649 15 7 4 7 197 -1 628 -15 783 -3 1015 62 1234 20
66 21 68 63 79 74 20 170 13 237 -17 108 -48 181 -150 237 -331 l28 -88 -1
-789 0 -788 50 6 c28 3 125 10 216 16 176 11 375 27 453 37 l48 6 -27 28 c-20
21 -25 33 -19 51 4 13 11 205 15 428 6 284 15 478 31 650 18 202 22 314 23
640 1 364 -1 407 -22 550 -33 223 -71 411 -88 437 -25 39 -193 114 -359 160
-125 35 -421 45 -541 18 -129 -28 -309 -105 -495 -210 l-46 -26 -89 60 c-155
105 -287 141 -514 141 -177 0 -275 -18 -479 -85 -90 -30 -165 -55 -167 -55 -1
0 -6 29 -9 64 -5 46 -12 67 -24 71 -9 4 -153 11 -321 16 -390 12 -470 20 -506
48 -32 26 -40 26 -49 4z"/>
</g>
</svg>
